<svg xmlns="http://www.w3.org/2000/svg" xmlns:xlink="http://www.w3.org/1999/xlink" width="1080" zoomAndPan="magnify" viewBox="0 0 810 809.999993" height="1080" preserveAspectRatio="xMidYMid meet" version="1.0"><defs><g/><clipPath id="520496ab9b"><path d="M 0 0 L 810 0 L 810 809.960938 L 0 809.960938 Z M 0 0 " clip-rule="nonzero"/></clipPath></defs><rect x="-81" width="972" fill="#ffffff" y="-80.999999" height="971.999992" fill-opacity="1"/><rect x="-81" width="972" fill="#ffffff" y="-80.999999" height="971.999992" fill-opacity="1"/><g clip-path="url(#520496ab9b)"><path fill="#004982" d="M 0 -3.765625 L 813.75 -3.765625 L 813.75 809.9375 L 0 809.9375 Z M 0 -3.765625 " fill-opacity="1" fill-rule="nonzero"/></g><path fill="#ffffff" d="M 426.304688 545.632812 C 426.304688 545.632812 434.65625 547.089844 425.910156 550.792969 C 425.925781 550.792969 368.257812 574.003906 292.917969 574.003906 C 220.238281 574.003906 134.746094 542.660156 119.148438 453.402344 C 104.527344 369.703125 177.195312 243.773438 349.421875 174.136719 C 349.421875 174.136719 485.246094 119.242188 597.921875 157.429688 C 597.921875 157.429688 700.640625 188.714844 689.339844 297.769531 C 689.339844 297.769531 685.277344 394.488281 570.753906 455.417969 C 570.753906 455.417969 522.394531 483.394531 524.414062 452.109375 L 535.792969 357.871094 C 535.792969 357.871094 542.691406 336.398438 520.34375 347.332031 C 520.34375 347.332031 510.195312 353.050781 512.214844 344.917969 C 512.214844 344.917969 512.214844 343.683594 517.515625 341.667969 L 557.324219 330.289062 C 557.324219 330.289062 568.679688 325.800781 566.269531 342.847656 L 555.277344 433.046875 C 555.277344 433.046875 550.402344 454.015625 565.035156 447.679688 C 611.742188 433.046875 646.28125 376.601562 646.28125 376.601562 C 696.628906 288.855469 659.289062 231.996094 659.289062 231.996094 C 612.976562 154.792969 500.050781 158.042969 500.050781 158.042969 C 335.125 158.042969 236.835938 256.386719 236.835938 256.386719 C 107.667969 369.308594 148.273438 464.332031 148.273438 464.332031 C 204.328125 609.714844 424.226562 545.796875 424.226562 545.796875 Z M 426.304688 545.632812 " fill-opacity="1" fill-rule="nonzero"/><path fill="#ffffff" d="M 216.285156 404.636719 C 216.007812 385.289062 230.023438 342.117188 253.613281 342.117188 C 262.863281 342.117188 264.644531 349.574219 264.644531 356.976562 C 264.644531 362.363281 264.054688 367.40625 262.863281 372.507812 Z M 284.535156 435.007812 C 273.542969 444.539062 258.378906 457.042969 243.15625 457.042969 C 220.179688 457.042969 216.003906 433.210938 216.285156 415.0625 C 246.140625 394.542969 274.148438 377.273438 299.125 356.136719 C 299.421875 353.726562 300.023438 351.648438 300.023438 349.238281 C 300.023438 348.398438 299.714844 347.5 298.539062 347.5 C 296.128906 347.5 298.539062 348.957031 287.804688 355.515625 L 287.804688 350.132812 C 287.804688 335.609375 278.019531 332.359375 264.941406 332.359375 C 217.507812 332.359375 183.820312 376.035156 183.820312 421.058594 C 183.820312 449.304688 195.734375 470.441406 226.742188 470.441406 C 250.320312 470.441406 273.265625 458.835938 288.695312 441.285156 Z M 284.535156 435.007812 " fill-opacity="1" fill-rule="nonzero"/><path fill="#ffffff" d="M 330.621094 346.378906 C 346.417969 337.183594 374.425781 331.296875 381.574219 331.296875 C 384.839844 331.296875 386.042969 331.859375 386.042969 337.183594 C 386.042969 348.453125 383.046875 362.699219 380.96875 387.757812 L 381.574219 388.320312 C 391.695312 364.488281 411.960938 331.300781 438.410156 331.300781 C 453.511719 331.300781 457.992188 346.382812 457.992188 358.832031 C 457.992188 371.671875 449.359375 435.683594 449.414062 441.574219 C 449.414062 443.648438 449.414062 450.769531 452.972656 450.769531 C 456.839844 450.769531 469.066406 444.207031 473.238281 442.136719 L 475.621094 448.976562 C 463.988281 458.730469 435.996094 467.363281 425.273438 467.363281 C 419.023438 467.363281 419.023438 455.480469 419.023438 451.945312 C 419.023438 432.390625 429.425781 385.292969 429.535156 362.476562 C 429.535156 357.375 428.050781 351.988281 421.488281 351.988281 C 409.574219 351.988281 399.148438 369.371094 394.660156 377.78125 C 379.789062 404.863281 377.09375 420.617188 370.84375 463.71875 L 341.957031 463.71875 C 346.710938 428.355469 355.652344 370.882812 355.652344 357.089844 C 355.652344 351.707031 355.652344 346.941406 351.472656 346.941406 C 346.707031 346.941406 337.777344 351.429688 333.011719 353.503906 Z M 330.621094 346.378906 " fill-opacity="1" fill-rule="nonzero"/><path fill="#ffffff" d="M 539.015625 297.488281 C 539.015625 286.78125 549.136719 276.628906 559.539062 276.628906 C 566.992188 276.628906 571.707031 282.570312 571.707031 289.46875 C 571.707031 299.5625 562.820312 310.328125 552.417969 310.328125 C 544.679688 310.328125 539.015625 305.226562 539.015625 297.488281 Z M 539.015625 297.488281 " fill-opacity="1" fill-rule="nonzero"/><path fill="#ffffff" d="M 160.144531 680.359375 L 655.417969 680.359375 L 655.417969 696.621094 L 160.144531 696.621094 Z M 160.144531 680.359375 " fill-opacity="1" fill-rule="nonzero"/><g fill="#ffffff" fill-opacity="1"><g transform="translate(268.484305, 768.136909)"><g><path d="M 32.890625 0 L 5.890625 0 L 5.890625 -46.859375 L 32.890625 -46.859375 L 32.890625 -38.71875 L 15.828125 -38.71875 L 15.828125 -28.421875 L 31.703125 -28.421875 L 31.703125 -20.28125 L 15.828125 -20.28125 L 15.828125 -8.203125 L 32.890625 -8.203125 Z M 32.890625 0 "/></g></g></g><g fill="#ffffff" fill-opacity="1"><g transform="translate(305.241382, 768.136909)"><g><path d="M 38.203125 0 L 28.421875 0 L 28.421875 -20.921875 C 28.421875 -23.515625 27.960938 -25.457031 27.046875 -26.75 C 26.128906 -28.039062 24.664062 -28.6875 22.65625 -28.6875 C 19.925781 -28.6875 17.953125 -27.769531 16.734375 -25.9375 C 15.515625 -24.113281 14.90625 -21.085938 14.90625 -16.859375 L 14.90625 0 L 5.125 0 L 5.125 -35.828125 L 12.59375 -35.828125 L 13.90625 -31.25 L 14.453125 -31.25 C 15.546875 -32.976562 17.046875 -34.285156 18.953125 -35.171875 C 20.867188 -36.054688 23.046875 -36.5 25.484375 -36.5 C 29.648438 -36.5 32.8125 -35.375 34.96875 -33.125 C 37.125 -30.875 38.203125 -27.617188 38.203125 -23.359375 Z M 38.203125 0 "/></g></g></g><g fill="#ffffff" fill-opacity="1"><g transform="translate(348.375666, 768.136909)"><g><path d="M 19.671875 0.640625 C 8.523438 0.640625 2.953125 -5.476562 2.953125 -17.71875 C 2.953125 -23.8125 4.46875 -28.460938 7.5 -31.671875 C 10.53125 -34.890625 14.878906 -36.5 20.546875 -36.5 C 24.691406 -36.5 28.410156 -35.6875 31.703125 -34.0625 L 28.8125 -26.5 C 27.269531 -27.125 25.835938 -27.632812 24.515625 -28.03125 C 23.191406 -28.425781 21.867188 -28.625 20.546875 -28.625 C 15.460938 -28.625 12.921875 -25.007812 12.921875 -17.78125 C 12.921875 -10.78125 15.460938 -7.28125 20.546875 -7.28125 C 22.421875 -7.28125 24.160156 -7.53125 25.765625 -8.03125 C 27.367188 -8.53125 28.972656 -9.316406 30.578125 -10.390625 L 30.578125 -2.015625 C 28.992188 -1.015625 27.394531 -0.320312 25.78125 0.0625 C 24.164062 0.445312 22.128906 0.640625 19.671875 0.640625 Z M 19.671875 0.640625 "/></g></g></g><g fill="#ffffff" fill-opacity="1"><g transform="translate(382.120392, 768.136909)"><g><path d="M 38.203125 0 L 28.421875 0 L 28.421875 -20.921875 C 28.421875 -26.097656 26.5 -28.6875 22.65625 -28.6875 C 19.925781 -28.6875 17.953125 -27.753906 16.734375 -25.890625 C 15.515625 -24.035156 14.90625 -21.023438 14.90625 -16.859375 L 14.90625 0 L 5.125 0 L 5.125 -49.875 L 14.90625 -49.875 L 14.90625 -39.71875 C 14.90625 -38.925781 14.828125 -37.066406 14.671875 -34.140625 L 14.453125 -31.25 L 14.96875 -31.25 C 17.144531 -34.75 20.609375 -36.5 25.359375 -36.5 C 29.566406 -36.5 32.757812 -35.367188 34.9375 -33.109375 C 37.113281 -30.847656 38.203125 -27.597656 38.203125 -23.359375 Z M 38.203125 0 "/></g></g></g><g fill="#ffffff" fill-opacity="1"><g transform="translate(425.254676, 768.136909)"><g><path d="M 19.96875 -29.546875 C 17.894531 -29.546875 16.269531 -28.890625 15.09375 -27.578125 C 13.914062 -26.265625 13.242188 -24.398438 13.078125 -21.984375 L 26.796875 -21.984375 C 26.753906 -24.398438 26.125 -26.265625 24.90625 -27.578125 C 23.6875 -28.890625 22.039062 -29.546875 19.96875 -29.546875 Z M 21.34375 0.640625 C 15.570312 0.640625 11.0625 -0.945312 7.8125 -4.125 C 4.570312 -7.3125 2.953125 -11.820312 2.953125 -17.65625 C 2.953125 -23.664062 4.453125 -28.304688 7.453125 -31.578125 C 10.453125 -34.859375 14.601562 -36.5 19.90625 -36.5 C 24.96875 -36.5 28.910156 -35.054688 31.734375 -32.171875 C 34.554688 -29.296875 35.96875 -25.3125 35.96875 -20.21875 L 35.96875 -15.484375 L 12.859375 -15.484375 C 12.960938 -12.703125 13.78125 -10.53125 15.3125 -8.96875 C 16.851562 -7.414062 19.015625 -6.640625 21.796875 -6.640625 C 23.953125 -6.640625 25.988281 -6.863281 27.90625 -7.3125 C 29.832031 -7.757812 31.84375 -8.472656 33.9375 -9.453125 L 33.9375 -1.890625 C 32.226562 -1.035156 30.398438 -0.398438 28.453125 0.015625 C 26.515625 0.429688 24.144531 0.640625 21.34375 0.640625 Z M 19.875 -39.78125 C 18.53125 -40.71875 16.554688 -42.238281 13.953125 -44.34375 C 11.347656 -46.445312 9.316406 -48.203125 7.859375 -49.609375 L 7.859375 -50.28125 L 18.828125 -50.28125 C 20.171875 -48.125 22.679688 -44.910156 26.359375 -40.640625 L 26.359375 -39.78125 Z M 19.875 -39.78125 "/></g></g></g><g fill="#ffffff" fill-opacity="1"><g transform="translate(464.030668, 768.136909)"><g><path d="M 25.125 -36.5 C 26.445312 -36.5 27.546875 -36.40625 28.421875 -36.21875 L 27.6875 -27.046875 C 26.894531 -27.265625 25.9375 -27.375 24.8125 -27.375 C 21.6875 -27.375 19.253906 -26.570312 17.515625 -24.96875 C 15.773438 -23.363281 14.90625 -21.117188 14.90625 -18.234375 L 14.90625 0 L 5.125 0 L 5.125 -35.828125 L 12.53125 -35.828125 L 13.96875 -29.8125 L 14.453125 -29.8125 C 15.566406 -31.820312 17.066406 -33.4375 18.953125 -34.65625 C 20.847656 -35.882812 22.90625 -36.5 25.125 -36.5 Z M 25.125 -36.5 "/></g></g></g><g fill="#ffffff" fill-opacity="1"><g transform="translate(493.833703, 768.136909)"><g><path d="M 19.96875 -29.546875 C 17.894531 -29.546875 16.269531 -28.890625 15.09375 -27.578125 C 13.914062 -26.265625 13.242188 -24.398438 13.078125 -21.984375 L 26.796875 -21.984375 C 26.753906 -24.398438 26.125 -26.265625 24.90625 -27.578125 C 23.6875 -28.890625 22.039062 -29.546875 19.96875 -29.546875 Z M 21.34375 0.640625 C 15.570312 0.640625 11.0625 -0.945312 7.8125 -4.125 C 4.570312 -7.3125 2.953125 -11.820312 2.953125 -17.65625 C 2.953125 -23.664062 4.453125 -28.304688 7.453125 -31.578125 C 10.453125 -34.859375 14.601562 -36.5 19.90625 -36.5 C 24.96875 -36.5 28.910156 -35.054688 31.734375 -32.171875 C 34.554688 -29.296875 35.96875 -25.3125 35.96875 -20.21875 L 35.96875 -15.484375 L 12.859375 -15.484375 C 12.960938 -12.703125 13.78125 -10.53125 15.3125 -8.96875 C 16.851562 -7.414062 19.015625 -6.640625 21.796875 -6.640625 C 23.953125 -6.640625 25.988281 -6.863281 27.90625 -7.3125 C 29.832031 -7.757812 31.84375 -8.472656 33.9375 -9.453125 L 33.9375 -1.890625 C 32.226562 -1.035156 30.398438 -0.398438 28.453125 0.015625 C 26.515625 0.429688 24.144531 0.640625 21.34375 0.640625 Z M 21.34375 0.640625 "/></g></g></g><g fill="#ffffff" fill-opacity="1"><g transform="translate(532.609695, 768.136909)"><g><path d="M 30.125 -10.640625 C 30.125 -6.960938 28.847656 -4.160156 26.296875 -2.234375 C 23.742188 -0.316406 19.925781 0.640625 14.84375 0.640625 C 12.226562 0.640625 10.003906 0.460938 8.171875 0.109375 C 6.335938 -0.242188 4.617188 -0.757812 3.015625 -1.4375 L 3.015625 -9.515625 C 4.828125 -8.660156 6.867188 -7.941406 9.140625 -7.359375 C 11.421875 -6.785156 13.425781 -6.5 15.15625 -6.5 C 18.707031 -6.5 20.484375 -7.523438 20.484375 -9.578125 C 20.484375 -10.347656 20.25 -10.972656 19.78125 -11.453125 C 19.3125 -11.929688 18.5 -12.472656 17.34375 -13.078125 C 16.1875 -13.691406 14.644531 -14.40625 12.71875 -15.21875 C 9.96875 -16.375 7.945312 -17.441406 6.65625 -18.421875 C 5.363281 -19.410156 4.421875 -20.539062 3.828125 -21.8125 C 3.242188 -23.082031 2.953125 -24.644531 2.953125 -26.5 C 2.953125 -29.6875 4.1875 -32.148438 6.65625 -33.890625 C 9.125 -35.628906 12.617188 -36.5 17.140625 -36.5 C 21.460938 -36.5 25.664062 -35.5625 29.75 -33.6875 L 26.796875 -26.640625 C 25.003906 -27.398438 23.328125 -28.023438 21.765625 -28.515625 C 20.203125 -29.015625 18.609375 -29.265625 16.984375 -29.265625 C 14.097656 -29.265625 12.65625 -28.484375 12.65625 -26.921875 C 12.65625 -26.046875 13.117188 -25.285156 14.046875 -24.640625 C 14.984375 -24.003906 17.019531 -23.054688 20.15625 -21.796875 C 22.957031 -20.660156 25.007812 -19.597656 26.3125 -18.609375 C 27.613281 -17.628906 28.570312 -16.5 29.1875 -15.21875 C 29.8125 -13.9375 30.125 -12.410156 30.125 -10.640625 Z M 30.125 -10.640625 "/></g></g></g></svg>